<svg width="142" height="37" viewBox="0 0 142 37" fill="none" xmlns="http://www.w3.org/2000/svg">
<path d="M18.4 22.8V26.192C17.312 26.288 16.8 26.32 15.712 26.32C13.28 26.32 11.584 25.232 11.552 23.152C10.752 25.328 8.83202 26.32 6.49602 26.32C2.68802 26.32 0.960022 23.792 0.960022 21.2C0.960022 17.2 3.80802 15.664 9.44002 15.664H11.136V14.224C11.136 12.272 10.24 11.536 8.70402 11.536C7.10402 11.536 6.24002 12.432 6.24002 14.032L1.63202 13.744C1.92002 10.672 4.22402 8.52799 8.99202 8.52799C13.824 8.52799 16 10.704 16 14.8V21.552C16 22.352 16.288 22.8 17.216 22.8H18.4ZM8.22402 23.12C9.92002 23.12 11.136 21.84 11.136 19.504V18.224H8.96002C7.32802 18.224 5.82402 18.832 5.82402 20.752C5.82402 22 6.59202 23.12 8.22402 23.12Z" fill="#00427D"/>
<path d="M30.5588 26H24.7028L18.5588 8.84799H23.5828L26.5268 18L27.7108 22.128L28.8628 18L31.5828 8.84799H36.5108L30.5588 26Z" fill="#00427D"/>
<path d="M54.7438 22.8V26.192C53.6558 26.288 53.1438 26.32 52.0558 26.32C49.6238 26.32 47.9278 25.232 47.8958 23.152C47.0958 25.328 45.1758 26.32 42.8398 26.32C39.0318 26.32 37.3038 23.792 37.3038 21.2C37.3038 17.2 40.1518 15.664 45.7838 15.664H47.4798V14.224C47.4798 12.272 46.5838 11.536 45.0478 11.536C43.4478 11.536 42.5838 12.432 42.5838 14.032L37.9758 13.744C38.2638 10.672 40.5678 8.52799 45.3358 8.52799C50.1678 8.52799 52.3438 10.704 52.3438 14.8V21.552C52.3438 22.352 52.6318 22.8 53.5598 22.8H54.7438ZM44.5678 23.12C46.2638 23.12 47.4798 21.84 47.4798 19.504V18.224H45.3038C43.6718 18.224 42.1678 18.832 42.1678 20.752C42.1678 22 42.9358 23.12 44.5678 23.12Z" fill="#00427D"/>
<path d="M57.2065 26V0.911987H62.1985V26H57.2065Z" fill="#00427D"/>
<path d="M66.5838 26V8.84799H71.5438V26H66.5838ZM66.5838 6.70399V2.03199H71.5438V6.70399H66.5838Z" fill="#00427D"/>
<path d="M91.8688 22.8V26.192C90.7808 26.288 90.2688 26.32 89.1808 26.32C86.7488 26.32 85.0528 25.232 85.0208 23.152C84.2208 25.328 82.3008 26.32 79.9648 26.32C76.1568 26.32 74.4288 23.792 74.4288 21.2C74.4288 17.2 77.2768 15.664 82.9088 15.664H84.6048V14.224C84.6048 12.272 83.7088 11.536 82.1728 11.536C80.5728 11.536 79.7088 12.432 79.7088 14.032L75.1008 13.744C75.3888 10.672 77.6928 8.52799 82.4608 8.52799C87.2928 8.52799 89.4688 10.704 89.4688 14.8V21.552C89.4688 22.352 89.7568 22.8 90.6848 22.8H91.8688ZM81.6928 23.12C83.3888 23.12 84.6048 21.84 84.6048 19.504V18.224H82.4288C80.7968 18.224 79.2928 18.832 79.2928 20.752C79.2928 22 80.0608 23.12 81.6928 23.12Z" fill="#00427D"/>
<path d="M125.72 36.1C123.93 36.1 122.74 35.29 122.74 33.36V29.01H124.34V33.24C124.34 34.34 124.85 34.85 125.75 34.85C126.67 34.85 127.13 34.32 127.13 33.19V29.01H128.74V33.29C128.74 35.22 127.59 36.1 125.72 36.1Z" fill="#00427D"/>
<path d="M133.571 36V32.86C133.571 32.11 133.361 31.73 132.741 31.73C132.101 31.73 131.741 32.28 131.741 33.16V36H130.171V31.88C130.171 31.33 130.151 30.94 130.141 30.64H131.641C131.651 30.79 131.701 31.32 131.721 31.74C131.991 30.95 132.591 30.54 133.431 30.54C134.781 30.54 135.161 31.45 135.161 32.45V36H133.571Z" fill="#00427D"/>
<path d="M141.86 34C141.86 35.41 140.72 36 139.15 36H136.49V29.01H138.91C140.53 29.01 141.46 29.6 141.46 30.78C141.46 31.57 141.04 32.09 140.2 32.29C141.27 32.43 141.86 33.07 141.86 34ZM140.24 33.88C140.24 33.17 139.66 32.97 138.95 32.97H138.06V34.84H139C139.74 34.84 140.24 34.6 140.24 33.88ZM139.86 30.96C139.86 30.37 139.51 30.15 138.76 30.15H138.06V31.78H138.77C139.53 31.78 139.86 31.53 139.86 30.96Z" fill="#00427D"/>
<path d="M95.144 26V20.784H100.136V26H95.144Z" fill="#008B43"/>
<path d="M120.681 22.8V26.192C119.593 26.288 119.081 26.32 117.993 26.32C115.561 26.32 113.865 25.232 113.833 23.152C113.033 25.328 111.113 26.32 108.777 26.32C104.969 26.32 103.241 23.792 103.241 21.2C103.241 17.2 106.089 15.664 111.721 15.664H113.417V14.224C113.417 12.272 112.521 11.536 110.985 11.536C109.385 11.536 108.521 12.432 108.521 14.032L103.913 13.744C104.201 10.672 106.505 8.52799 111.273 8.52799C116.105 8.52799 118.281 10.704 118.281 14.8V21.552C118.281 22.352 118.569 22.8 119.497 22.8H120.681ZM110.505 23.12C112.201 23.12 113.417 21.84 113.417 19.504V18.224H111.241C109.609 18.224 108.105 18.832 108.105 20.752C108.105 22 108.873 23.12 110.505 23.12Z" fill="#008B43"/>
<path d="M123.24 26V8.84799H128.2V26H123.24ZM123.24 6.70399V2.03199H128.2V6.70399H123.24Z" fill="#008B43"/>
</svg>
